# xmcd CD database file
#
# Track frame offsets:
#	150
#	15001
#	26638
#	44255
#	54510
#	72862
#	85875
#	101234
#	113358
#	128692
#	145062
#	158033
#	176713
#	192404
#
# Disc length: 2788 seconds
#
# Revision: 0
# Processed by: cddbd v1.5.2PL0 Copyright (c) Steve Scherf et al.
# Submitted via: CDex 1.51
#
DISCID=ae0ae20e
DTITLE=Shadric Smith and The Billy Buffalo Band - Shadric Smith and The Billy Buffalo Band
DYEAR=1999
DGENRE=Country
TTITLE0=Yankee Cowboy
TTITLE1=The Moon Is My Companion
TTITLE2=Ride The Texas Wind
TTITLE3=The Nitehawks
TTITLE4=Diamonds Don't Mean A Thing
TTITLE5=Holiday's Club Cafe
TTITLE6=Riverboat Sail Downstream
TTITLE7=I Can't Stop My Feet From Dancin'
TTITLE8=Redbird
TTITLE9=Hello Nel...
TTITLE10=I Can't Help Myself
TTITLE11=Country Boy
TTITLE12=It's Late
TTITLE13=Tearin' My Way Home
EXTD=YEAR: 1999
EXTT0=
EXTT1=
EXTT2=
EXTT3=
EXTT4=
EXTT5=
EXTT6=
EXTT7=
EXTT8=
EXTT9=
EXTT10=
EXTT11=
EXTT12=
EXTT13=
PLAYORDER=
